<?xml version="1.0" encoding="utf-8"?>
<!-- Generator: Adobe Illustrator 16.0.0, SVG Export Plug-In . SVG Version: 6.00 Build 0)  -->
<!DOCTYPE svg PUBLIC "-//W3C//DTD SVG 1.1//EN" "http://www.w3.org/Graphics/SVG/1.1/DTD/svg11.dtd">
<svg version="1.1" id="Layer_1" xmlns="http://www.w3.org/2000/svg" xmlns:xlink="http://www.w3.org/1999/xlink" x="0px" y="0px"
	 width="291.938px" height="39.595px" viewBox="0 0 291.938 39.595" enable-background="new 0 0 291.938 39.595"
	 xml:space="preserve">
<g>
	<g>
		<rect x="52" y="1.595" fill="#231F20" width="20" height="8"/>
		<rect x="13" y="1.595" fill="#231F20" width="8" height="26"/>
		<rect x="26" y="1.595" fill="#231F20" width="8" height="38"/>
		<rect y="1.595" fill="#231F20" width="8" height="38"/>
		<rect x="52" y="14.595" fill="#231F20" width="8" height="25"/>
		<rect x="39" y="1.595" fill="#231F20" width="8" height="8"/>
		<rect x="39" y="14.595" fill="#A41F35" width="8" height="25"/>
	</g>
	<g>
		<path fill="#010101" d="M85.977,1.583h2.871l1.386,5.82h0.022l1.43-5.82h2.838v7.833h-1.848V3.332h-0.022l-1.551,6.084h-1.727
			l-1.595-6.084h-0.022v6.084h-1.782V1.583z"/>
		<path fill="#010101" d="M100.949,8.195c0,0.407,0.011,0.858,0.154,1.221h-1.584c-0.066-0.198-0.099-0.407-0.11-0.605h-0.022
			C99.1,9.273,98.242,9.57,97.626,9.57c-1.122,0-1.958-0.616-1.958-1.738c0-1.408,1.133-1.903,3.003-2.167l0.627-0.088V5.092
			c0-0.44-0.352-0.627-0.814-0.627c-0.55,0-0.814,0.198-0.902,0.781h-1.65c0.055-1.684,1.618-1.837,2.41-1.837
			c1.595,0,2.596,0.374,2.607,1.694V8.195z M99.298,6.566l-1.155,0.33c-0.429,0.121-0.825,0.286-0.825,0.759
			c0,0.462,0.385,0.66,0.803,0.66c0.671,0,1.177-0.451,1.177-1.342V6.566z"/>
		<path fill="#010101" d="M106.327,5.291c-0.341-0.407-1.078-0.627-1.617-0.627c-0.429,0-0.737,0.154-0.737,0.451
			c0,1.001,3.465,0.176,3.465,2.365c0,1.541-1.364,2.09-2.64,2.09c-1.276,0-2.002-0.363-2.86-1.155l1.067-0.924
			c0.528,0.506,1.067,0.825,1.848,0.825c0.286,0,0.935-0.066,0.935-0.594c0-0.913-3.465-0.187-3.465-2.266
			c0-1.474,1.287-2.046,2.476-2.046c0.902,0,1.793,0.319,2.585,0.847L106.327,5.291z"/>
		<path fill="#010101" d="M112.443,5.291c-0.341-0.407-1.078-0.627-1.617-0.627c-0.429,0-0.737,0.154-0.737,0.451
			c0,1.001,3.465,0.176,3.465,2.365c0,1.541-1.364,2.09-2.64,2.09c-1.276,0-2.002-0.363-2.86-1.155l1.067-0.924
			c0.528,0.506,1.067,0.825,1.848,0.825c0.286,0,0.935-0.066,0.935-0.594c0-0.913-3.465-0.187-3.465-2.266
			c0-1.474,1.287-2.046,2.476-2.046c0.902,0,1.793,0.319,2.585,0.847L112.443,5.291z"/>
		<path fill="#010101" d="M119.704,8.195c0,0.407,0.011,0.858,0.154,1.221h-1.584c-0.066-0.198-0.099-0.407-0.11-0.605h-0.022
			c-0.286,0.462-1.144,0.759-1.76,0.759c-1.122,0-1.958-0.616-1.958-1.738c0-1.408,1.133-1.903,3.003-2.167l0.627-0.088V5.092
			c0-0.44-0.352-0.627-0.814-0.627c-0.55,0-0.814,0.198-0.902,0.781h-1.65c0.055-1.684,1.618-1.837,2.41-1.837
			c1.595,0,2.596,0.374,2.607,1.694V8.195z M118.054,6.566l-1.155,0.33c-0.429,0.121-0.825,0.286-0.825,0.759
			c0,0.462,0.385,0.66,0.803,0.66c0.671,0,1.177-0.451,1.177-1.342V6.566z"/>
		<path fill="#010101" d="M125.083,5.532c-0.308-0.66-0.836-0.803-1.1-0.803c-0.979,0-1.331,0.759-1.331,1.76
			c0,1.001,0.418,1.76,1.331,1.76c0.528,0,0.946-0.198,1.221-0.858l1.232,0.627c-0.528,0.935-1.485,1.551-2.607,1.551
			c-1.75,0-2.959-1.111-2.959-3.08c0-1.937,1.287-3.081,2.904-3.081c1.111,0,2.068,0.407,2.629,1.43L125.083,5.532z"/>
		<path fill="#010101" d="M127.403,1.583h1.716v2.53h0.022c0.33-0.451,1.067-0.704,1.606-0.704c1.232,0,1.837,0.715,1.837,1.892
			v4.115h-1.716V5.907c0-0.902-0.484-1.111-0.858-1.111c-0.396,0-0.891,0.253-0.891,1.342v3.278h-1.716V1.583z"/>
		<path fill="#010101" d="M139.306,9.416h-1.716V8.899c-0.44,0.517-1.167,0.671-1.694,0.671c-1.386,0-1.771-0.803-1.771-1.683V3.563
			h1.716v3.829c0,0.517,0.187,0.792,0.836,0.792c0.495,0,0.914-0.275,0.914-0.913V3.563h1.716V9.416z"/>
		<path fill="#010101" d="M144.64,5.291c-0.341-0.407-1.078-0.627-1.617-0.627c-0.429,0-0.737,0.154-0.737,0.451
			c0,1.001,3.465,0.176,3.465,2.365c0,1.541-1.364,2.09-2.64,2.09c-1.276,0-2.002-0.363-2.861-1.155l1.067-0.924
			c0.528,0.506,1.067,0.825,1.848,0.825c0.286,0,0.935-0.066,0.935-0.594c0-0.913-3.465-0.187-3.465-2.266
			c0-1.474,1.287-2.046,2.476-2.046c0.902,0,1.793,0.319,2.585,0.847L144.64,5.291z"/>
		<path fill="#010101" d="M148.259,6.842c0.011,1.122,0.726,1.474,1.276,1.474c0.638,0,0.935-0.33,1.43-1.034l1.287,0.671
			c-0.595,1.1-1.529,1.617-2.838,1.617c-1.815,0-2.872-1.254-2.872-2.904c0-2.068,1.089-3.256,2.872-3.256
			c2.134,0,2.861,1.628,2.871,3.433H148.259z M150.569,5.786c-0.055-0.858-0.671-1.123-1.166-1.123s-1.089,0.353-1.166,1.123
			H150.569z"/>
		<path fill="#010101" d="M156.377,4.729h-1.023v2.871c0,0.462,0.232,0.583,0.54,0.583c0.187,0,0.429-0.022,0.517-0.033v1.353
			c-0.22,0.022-0.727,0.066-1.1,0.066c-1.463,0-1.672-0.913-1.672-1.76v-3.08h-0.837V3.673h0.837V1.979h1.715v1.694h1.023V4.729z"/>
		<path fill="#010101" d="M160.25,4.729h-1.023v2.871c0,0.462,0.23,0.583,0.539,0.583c0.188,0,0.429-0.022,0.518-0.033v1.353
			c-0.221,0.022-0.727,0.066-1.102,0.066c-1.463,0-1.672-0.913-1.672-1.76v-3.08h-0.836V3.673h0.836V1.979h1.717v1.694h1.023V4.729z
			"/>
		<path fill="#010101" d="M165.023,5.291c-0.341-0.407-1.078-0.627-1.617-0.627c-0.429,0-0.736,0.154-0.736,0.451
			c0,1.001,3.465,0.176,3.465,2.365c0,1.541-1.364,2.09-2.641,2.09c-1.275,0-2.002-0.363-2.859-1.155l1.066-0.924
			c0.528,0.506,1.067,0.825,1.848,0.825c0.287,0,0.936-0.066,0.936-0.594c0-0.913-3.465-0.187-3.465-2.266
			c0-1.474,1.287-2.046,2.475-2.046c0.902,0,1.793,0.319,2.586,0.847L165.023,5.291z"/>
		<path fill="#010101" d="M170.392,1.583h1.958v7.833h-1.958V1.583z"/>
		<path fill="#010101" d="M173.879,3.563h1.716V4.08c0.44-0.517,1.166-0.671,1.694-0.671c1.387,0,1.771,0.803,1.771,1.683v4.324
			h-1.717V5.752c0-0.572-0.176-0.957-0.836-0.957c-0.693,0-0.913,0.451-0.913,0.979v3.642h-1.716V3.563z"/>
		<path fill="#010101" d="M184.395,5.291c-0.341-0.407-1.078-0.627-1.617-0.627c-0.429,0-0.736,0.154-0.736,0.451
			c0,1.001,3.465,0.176,3.465,2.365c0,1.541-1.364,2.09-2.641,2.09c-1.275,0-2.002-0.363-2.859-1.155l1.066-0.924
			c0.528,0.506,1.067,0.825,1.848,0.825c0.287,0,0.936-0.066,0.936-0.594c0-0.913-3.465-0.187-3.465-2.266
			c0-1.474,1.287-2.046,2.475-2.046c0.902,0,1.793,0.319,2.586,0.847L184.395,5.291z"/>
		<path fill="#010101" d="M189.609,4.729h-1.023v2.871c0,0.462,0.23,0.583,0.539,0.583c0.188,0,0.429-0.022,0.518-0.033v1.353
			c-0.221,0.022-0.727,0.066-1.102,0.066c-1.463,0-1.672-0.913-1.672-1.76v-3.08h-0.836V3.673h0.836V1.979h1.717v1.694h1.023V4.729z
			"/>
		<path fill="#010101" d="M190.588,2.903v-1.32h1.716v1.32H190.588z M192.304,3.563v5.853h-1.716V3.563H192.304z"/>
		<path fill="#010101" d="M196.736,4.729h-1.023v2.871c0,0.462,0.232,0.583,0.54,0.583c0.187,0,0.429-0.022,0.517-0.033v1.353
			c-0.22,0.022-0.727,0.066-1.1,0.066c-1.463,0-1.672-0.913-1.672-1.76v-3.08h-0.837V3.673h0.837V1.979h1.715v1.694h1.023V4.729z"/>
		<path fill="#010101" d="M202.896,9.416h-1.715V8.899c-0.441,0.517-1.167,0.671-1.695,0.671c-1.386,0-1.771-0.803-1.771-1.683
			V3.563h1.717v3.829c0,0.517,0.188,0.792,0.836,0.792c0.495,0,0.914-0.275,0.914-0.913V3.563h1.715V9.416z"/>
		<path fill="#010101" d="M207.33,4.729h-1.023v2.871c0,0.462,0.23,0.583,0.539,0.583c0.188,0,0.429-0.022,0.518-0.033v1.353
			c-0.221,0.022-0.727,0.066-1.102,0.066c-1.463,0-1.672-0.913-1.672-1.76v-3.08h-0.836V3.673h0.836V1.979h1.717v1.694h1.023V4.729z
			"/>
		<path fill="#010101" d="M209.606,6.842c0.011,1.122,0.726,1.474,1.276,1.474c0.638,0,0.936-0.33,1.43-1.034l1.287,0.671
			c-0.594,1.1-1.529,1.617-2.838,1.617c-1.815,0-2.871-1.254-2.871-2.904c0-2.068,1.089-3.256,2.871-3.256
			c2.135,0,2.86,1.628,2.871,3.433H209.606z M211.916,5.786c-0.055-0.858-0.67-1.123-1.166-1.123c-0.494,0-1.088,0.353-1.166,1.123
			H211.916z"/>
		<path fill="#010101" d="M223.698,6.49c0,1.969-1.287,3.08-3.114,3.08c-1.826,0-3.113-1.111-3.113-3.08s1.287-3.081,3.113-3.081
			C222.411,3.409,223.698,4.521,223.698,6.49z M219.188,6.49c0,1.001,0.418,1.76,1.396,1.76c0.98,0,1.398-0.759,1.398-1.826
			c0-0.936-0.418-1.694-1.398-1.694C219.605,4.729,219.188,5.488,219.188,6.49z"/>
		<path fill="#010101" d="M225.039,4.729h-0.902V3.673h0.902V3.101c0-0.66,0.209-1.606,1.672-1.606c0.375,0,0.902,0.055,1.123,0.132
			v1.254h-0.484c-0.297,0-0.594,0.088-0.594,0.418v0.374h1.056v1.056h-1.056v4.687h-1.717V4.729z"/>
		<path fill="#010101" d="M231.111,1.583h6.051v1.518h-2.047v6.315h-1.958V3.101h-2.046V1.583z"/>
		<path fill="#010101" d="M238.547,6.842c0.012,1.122,0.727,1.474,1.277,1.474c0.637,0,0.935-0.33,1.43-1.034l1.287,0.671
			c-0.594,1.1-1.529,1.617-2.838,1.617c-1.816,0-2.872-1.254-2.872-2.904c0-2.068,1.089-3.256,2.872-3.256
			c2.134,0,2.859,1.628,2.871,3.433H238.547z M240.857,5.786c-0.055-0.858-0.671-1.123-1.166-1.123s-1.089,0.353-1.166,1.123
			H240.857z"/>
		<path fill="#010101" d="M247.568,5.532c-0.309-0.66-0.836-0.803-1.101-0.803c-0.979,0-1.331,0.759-1.331,1.76
			c0,1.001,0.418,1.76,1.331,1.76c0.528,0,0.946-0.198,1.222-0.858l1.232,0.627c-0.529,0.935-1.486,1.551-2.607,1.551
			c-1.75,0-2.96-1.111-2.96-3.08c0-1.937,1.287-3.081,2.904-3.081c1.111,0,2.068,0.407,2.63,1.43L247.568,5.532z"/>
		<path fill="#010101" d="M249.889,1.583h1.717v2.53h0.021c0.33-0.451,1.067-0.704,1.606-0.704c1.231,0,1.837,0.715,1.837,1.892
			v4.115h-1.716V5.907c0-0.902-0.484-1.111-0.858-1.111c-0.396,0-0.891,0.253-0.891,1.342v3.278h-1.717V1.583z"/>
		<path fill="#010101" d="M256.609,3.563h1.717V4.08c0.439-0.517,1.166-0.671,1.693-0.671c1.387,0,1.771,0.803,1.771,1.683v4.324
			h-1.716V5.752c0-0.572-0.177-0.957-0.837-0.957c-0.692,0-0.912,0.451-0.912,0.979v3.642h-1.717V3.563z"/>
		<path fill="#010101" d="M269.139,6.49c0,1.969-1.287,3.08-3.113,3.08s-3.113-1.111-3.113-3.08s1.287-3.081,3.113-3.081
			S269.139,4.521,269.139,6.49z M264.629,6.49c0,1.001,0.418,1.76,1.396,1.76c0.979,0,1.397-0.759,1.397-1.826
			c0-0.936-0.418-1.694-1.397-1.694C265.047,4.729,264.629,5.488,264.629,6.49z"/>
		<path fill="#010101" d="M270.26,9.416V1.583h1.717v7.833H270.26z"/>
		<path fill="#010101" d="M279.324,6.49c0,1.969-1.287,3.08-3.113,3.08s-3.113-1.111-3.113-3.08s1.287-3.081,3.113-3.081
			S279.324,4.521,279.324,6.49z M274.814,6.49c0,1.001,0.418,1.76,1.396,1.76c0.979,0,1.397-0.759,1.397-1.826
			c0-0.936-0.418-1.694-1.397-1.694C275.232,4.729,274.814,5.488,274.814,6.49z"/>
		<path fill="#010101" d="M285.583,3.563v5.864c0,1.859-1.903,1.925-2.806,1.925c-1.76,0-2.684-0.594-2.695-2.024h1.783
			c0.01,0.638,0.373,0.902,0.99,0.902c0.659,0,1.066-0.132,1.066-0.99V8.569c-0.374,0.363-1.1,0.484-1.617,0.484
			c-1.639,0-2.277-1.32-2.277-2.794c0-1.431,0.748-2.85,2.299-2.85c0.639,0,1.188,0.143,1.673,0.616V3.563H285.583z M282.822,4.663
			c-0.539,0-1.078,0.308-1.078,1.573c0,0.704,0.153,1.562,1.056,1.562c1.101,0,1.134-0.957,1.134-1.562
			C283.934,5.048,283.35,4.663,282.822,4.663z"/>
		<path fill="#010101" d="M286.848,10.01c0.197,0.011,0.396,0.022,0.582,0.022c0.518,0,0.793-0.099,0.793-0.429
			c0-0.088-0.012-0.187-0.154-0.627l-1.717-5.413h1.805l0.946,4.467h0.022l0.957-4.467h1.859l-2.059,6.238
			c-0.297,0.891-0.67,1.551-1.683,1.551h-1.353V10.01z"/>
	</g>
</g>
</svg>
