<?xml version="1.0" encoding="utf-8"?>
<!-- Generator: Adobe Illustrator 16.0.0, SVG Export Plug-In . SVG Version: 6.00 Build 0)  -->
<!DOCTYPE svg PUBLIC "-//W3C//DTD SVG 1.1//EN" "http://www.w3.org/Graphics/SVG/1.1/DTD/svg11.dtd">
<svg version="1.1" id="Layer_1" xmlns="http://www.w3.org/2000/svg" xmlns:xlink="http://www.w3.org/1999/xlink" x="0px" y="0px"
	 width="218.955px" height="28.574px" viewBox="0 0 218.955 28.574" enable-background="new 0 0 218.955 28.574"
	 xml:space="preserve">
<g>
	<g>
		<rect x="39" y="0.075" fill="#C3C0BF" width="15" height="6"/>
		<rect x="9.75" y="0.075" fill="#C3C0BF" width="6" height="19.5"/>
		<rect x="19.5" y="0.075" fill="#C3C0BF" width="6" height="28.5"/>
		<rect y="0.075" fill="#C3C0BF" width="6" height="28.5"/>
		<rect x="39" y="9.825" fill="#C3C0BF" width="6" height="18.75"/>
		<rect x="29.25" y="0.075" fill="#C3C0BF" width="6" height="6"/>
		<rect x="29.25" y="9.825" fill="#FFFFFF" width="6" height="18.75"/>
	</g>
	<g>
		<path fill="#C3C0BF" d="M64.482,0.066h2.153l1.039,4.365h0.017l1.072-4.365h2.128v5.875h-1.384V1.378H69.49l-1.163,4.563h-1.295
			l-1.197-4.563h-0.016v4.563h-1.337V0.066z"/>
		<path fill="#C3C0BF" d="M75.712,5.025c0,0.306,0.008,0.644,0.114,0.916h-1.188c-0.049-0.148-0.074-0.305-0.082-0.454H74.54
			c-0.216,0.346-0.858,0.569-1.32,0.569c-0.842,0-1.469-0.461-1.469-1.303c0-1.056,0.85-1.427,2.252-1.625l0.471-0.066V2.698
			c0-0.33-0.265-0.47-0.61-0.47c-0.413,0-0.61,0.149-0.676,0.586h-1.238c0.041-1.263,1.213-1.377,1.808-1.377
			c1.196,0,1.946,0.28,1.956,1.271L75.712,5.025L75.712,5.025z M74.474,3.803l-0.866,0.248c-0.323,0.091-0.62,0.214-0.62,0.569
			c0,0.346,0.289,0.495,0.603,0.495c0.503,0,0.883-0.338,0.883-1.006V3.803z"/>
		<path fill="#C3C0BF" d="M79.744,2.847c-0.256-0.305-0.809-0.47-1.213-0.47c-0.32,0-0.553,0.116-0.553,0.338
			c0,0.751,2.6,0.132,2.6,1.773c0,1.156-1.022,1.567-1.979,1.567c-0.958,0-1.502-0.272-2.146-0.866l0.801-0.693
			c0.396,0.379,0.8,0.618,1.386,0.618c0.214,0,0.701-0.049,0.701-0.445c0-0.685-2.599-0.14-2.599-1.699
			c0-1.105,0.965-1.535,1.856-1.535c0.677,0,1.345,0.239,1.939,0.635L79.744,2.847z"/>
		<path fill="#C3C0BF" d="M84.332,2.847c-0.256-0.305-0.809-0.47-1.213-0.47c-0.321,0-0.553,0.116-0.553,0.338
			c0,0.751,2.6,0.132,2.6,1.773c0,1.156-1.023,1.567-1.979,1.567c-0.957,0-1.502-0.272-2.146-0.866l0.801-0.693
			c0.396,0.379,0.8,0.618,1.387,0.618c0.215,0,0.7-0.049,0.7-0.445c0-0.685-2.599-0.14-2.599-1.699c0-1.105,0.965-1.535,1.857-1.535
			c0.676,0,1.344,0.239,1.938,0.635L84.332,2.847z"/>
		<path fill="#C3C0BF" d="M89.777,5.025c0,0.306,0.008,0.644,0.115,0.916h-1.188c-0.049-0.148-0.074-0.305-0.082-0.454h-0.018
			c-0.215,0.346-0.857,0.569-1.32,0.569c-0.84,0-1.467-0.461-1.467-1.303c0-1.056,0.85-1.427,2.252-1.625l0.47-0.066V2.698
			c0-0.33-0.265-0.47-0.61-0.47c-0.413,0-0.611,0.149-0.677,0.586h-1.238c0.042-1.263,1.214-1.377,1.808-1.377
			c1.197,0,1.947,0.28,1.957,1.271L89.777,5.025L89.777,5.025z M88.54,3.803l-0.866,0.248c-0.32,0.091-0.618,0.214-0.618,0.569
			c0,0.346,0.289,0.495,0.603,0.495c0.502,0,0.882-0.338,0.882-1.006V3.803z"/>
		<path fill="#C3C0BF" d="M93.812,3.028c-0.231-0.495-0.627-0.603-0.826-0.603c-0.734,0-1,0.569-1,1.32c0,0.75,0.313,1.32,1,1.32
			c0.396,0,0.709-0.149,0.916-0.645l0.924,0.47c-0.396,0.701-1.113,1.163-1.955,1.163c-1.312,0-2.221-0.833-2.221-2.31
			c0-1.453,0.967-2.311,2.178-2.311c0.834,0,1.552,0.305,1.973,1.072L93.812,3.028z"/>
		<path fill="#C3C0BF" d="M95.552,0.066h1.288v1.896h0.016c0.248-0.338,0.801-0.527,1.205-0.527c0.924,0,1.377,0.536,1.377,1.418
			V5.94H98.15V3.309c0-0.677-0.363-0.833-0.644-0.833c-0.296,0-0.668,0.189-0.668,1.007v2.458h-1.288L95.552,0.066L95.552,0.066z"/>
		<path fill="#C3C0BF" d="M104.479,5.941h-1.287V5.553c-0.33,0.388-0.875,0.503-1.271,0.503c-1.04,0-1.328-0.602-1.328-1.262V1.551
			h1.287v2.872c0,0.388,0.14,0.594,0.627,0.594c0.371,0,0.687-0.206,0.687-0.685V1.551h1.287L104.479,5.941L104.479,5.941z"/>
		<path fill="#C3C0BF" d="M108.479,2.847c-0.255-0.305-0.809-0.47-1.213-0.47c-0.32,0-0.552,0.116-0.552,0.338
			c0,0.751,2.599,0.132,2.599,1.773c0,1.156-1.022,1.567-1.979,1.567s-1.502-0.272-2.146-0.866l0.799-0.693
			c0.396,0.379,0.802,0.618,1.388,0.618c0.214,0,0.7-0.049,0.7-0.445c0-0.685-2.598-0.14-2.598-1.699
			c0-1.105,0.965-1.535,1.856-1.535c0.677,0,1.345,0.239,1.938,0.635L108.479,2.847z"/>
		<path fill="#C3C0BF" d="M111.195,4.01c0.008,0.842,0.543,1.105,0.957,1.105c0.479,0,0.701-0.247,1.071-0.775l0.966,0.503
			c-0.445,0.825-1.146,1.212-2.129,1.212c-1.361,0-2.154-0.94-2.154-2.178c0-1.551,0.816-2.442,2.154-2.442
			c1.602,0,2.146,1.221,2.153,2.575H111.195L111.195,4.01z M112.926,3.219c-0.041-0.644-0.503-0.842-0.874-0.842
			s-0.815,0.265-0.875,0.842H112.926z"/>
		<path fill="#C3C0BF" d="M117.283,2.426h-0.769v2.153c0,0.346,0.175,0.437,0.404,0.437c0.142,0,0.321-0.016,0.389-0.024v1.015
			c-0.166,0.017-0.545,0.049-0.825,0.049c-1.097,0-1.254-0.685-1.254-1.32v-2.31h-0.627V1.634h0.627V0.363h1.286v1.271h0.769V2.426
			L117.283,2.426z"/>
		<path fill="#C3C0BF" d="M120.188,2.426h-0.769v2.153c0,0.346,0.174,0.437,0.403,0.437c0.144,0,0.322-0.016,0.39-0.024v1.015
			c-0.166,0.017-0.545,0.049-0.826,0.049c-1.099,0-1.254-0.685-1.254-1.32v-2.31h-0.627V1.634h0.627V0.363h1.287v1.271h0.769V2.426
			L120.188,2.426z"/>
		<path fill="#C3C0BF" d="M123.767,2.847c-0.256-0.305-0.809-0.47-1.213-0.47c-0.321,0-0.552,0.116-0.552,0.338
			c0,0.751,2.599,0.132,2.599,1.773c0,1.156-1.022,1.567-1.979,1.567s-1.502-0.272-2.146-0.866l0.8-0.693
			c0.396,0.379,0.801,0.618,1.387,0.618c0.215,0,0.701-0.049,0.701-0.445c0-0.685-2.599-0.14-2.599-1.699
			c0-1.105,0.966-1.535,1.854-1.535c0.678,0,1.347,0.239,1.939,0.635L123.767,2.847z"/>
		<path fill="#C3C0BF" d="M127.794,0.066h1.468v5.875h-1.468V0.066z"/>
		<path fill="#C3C0BF" d="M130.41,1.551h1.287v0.388c0.33-0.388,0.873-0.503,1.27-0.503c1.041,0,1.328,0.602,1.328,1.262v3.243
			h-1.288V3.193c0-0.429-0.133-0.718-0.627-0.718c-0.521,0-0.687,0.338-0.687,0.734V5.94h-1.287V1.55L130.41,1.551L130.41,1.551z"/>
		<path fill="#C3C0BF" d="M138.296,2.847c-0.256-0.305-0.81-0.47-1.213-0.47c-0.322,0-0.554,0.116-0.554,0.338
			c0,0.751,2.601,0.132,2.601,1.773c0,1.156-1.022,1.567-1.979,1.567s-1.502-0.272-2.146-0.866l0.799-0.693
			c0.396,0.379,0.802,0.618,1.388,0.618c0.215,0,0.7-0.049,0.7-0.445c0-0.685-2.598-0.14-2.598-1.699
			c0-1.105,0.965-1.535,1.854-1.535c0.676,0,1.346,0.239,1.939,0.635L138.296,2.847z"/>
		<path fill="#C3C0BF" d="M142.206,2.426h-0.769v2.153c0,0.346,0.172,0.437,0.404,0.437c0.141,0,0.322-0.016,0.389-0.024v1.015
			c-0.166,0.017-0.545,0.049-0.826,0.049c-1.098,0-1.254-0.685-1.254-1.32v-2.31h-0.627V1.634h0.627V0.363h1.287v1.271h0.769V2.426
			L142.206,2.426z"/>
		<path fill="#C3C0BF" d="M142.941,1.056v-0.99h1.287v0.99H142.941z M144.229,1.551v4.39h-1.287v-4.39H144.229z"/>
		<path fill="#C3C0BF" d="M147.552,2.426h-0.769v2.153c0,0.346,0.175,0.437,0.404,0.437c0.141,0,0.322-0.016,0.389-0.024v1.015
			c-0.166,0.017-0.545,0.049-0.824,0.049c-1.098,0-1.254-0.685-1.254-1.32v-2.31h-0.629V1.634h0.629V0.363h1.285v1.271h0.769V2.426
			L147.552,2.426z"/>
		<path fill="#C3C0BF" d="M152.171,5.941h-1.285V5.553c-0.331,0.388-0.876,0.503-1.271,0.503c-1.041,0-1.328-0.602-1.328-1.262
			V1.551h1.287v2.872c0,0.388,0.141,0.594,0.627,0.594c0.371,0,0.686-0.206,0.686-0.685V1.551h1.286L152.171,5.941L152.171,5.941z"
			/>
		<path fill="#C3C0BF" d="M155.497,2.426h-0.769v2.153c0,0.346,0.174,0.437,0.404,0.437c0.141,0,0.322-0.016,0.389-0.024v1.015
			c-0.166,0.017-0.545,0.049-0.826,0.049c-1.098,0-1.254-0.685-1.254-1.32v-2.31h-0.627V1.634h0.627V0.363h1.287v1.271h0.769V2.426
			L155.497,2.426z"/>
		<path fill="#C3C0BF" d="M157.205,4.01c0.008,0.842,0.545,1.105,0.957,1.105c0.479,0,0.701-0.247,1.072-0.775l0.965,0.503
			c-0.445,0.825-1.146,1.212-2.129,1.212c-1.361,0-2.152-0.94-2.152-2.178c0-1.551,0.816-2.442,2.152-2.442
			c1.602,0,2.146,1.221,2.153,2.575H157.205L157.205,4.01z M158.938,3.219c-0.041-0.644-0.502-0.842-0.875-0.842
			c-0.371,0-0.815,0.265-0.875,0.842H158.938z"/>
		<path fill="#C3C0BF" d="M167.773,3.746c0,1.477-0.966,2.31-2.336,2.31c-1.369,0-2.334-0.833-2.334-2.31s0.965-2.311,2.334-2.311
			C166.808,1.435,167.773,2.27,167.773,3.746z M164.39,3.746c0,0.751,0.313,1.32,1.048,1.32c0.735,0,1.049-0.569,1.049-1.37
			c0-0.702-0.312-1.271-1.049-1.271C164.703,2.426,164.39,2.994,164.39,3.746z"/>
		<path fill="#C3C0BF" d="M168.779,2.426h-0.676V1.634h0.676v-0.43c0-0.495,0.156-1.204,1.254-1.204
			c0.281,0,0.676,0.041,0.843,0.099v0.94h-0.363c-0.223,0-0.444,0.066-0.444,0.313v0.281h0.791v0.792h-0.791V5.94h-1.289V2.426
			L168.779,2.426z"/>
		<path fill="#C3C0BF" d="M173.333,0.066h4.538v1.138h-1.535V5.94h-1.469V1.204h-1.534V0.066L173.333,0.066z"/>
		<path fill="#C3C0BF" d="M178.91,4.01c0.01,0.842,0.545,1.105,0.959,1.105c0.477,0,0.701-0.247,1.072-0.775l0.965,0.503
			c-0.445,0.825-1.146,1.212-2.129,1.212c-1.361,0-2.154-0.94-2.154-2.178c0-1.551,0.816-2.442,2.154-2.442
			c1.602,0,2.145,1.221,2.153,2.575H178.91L178.91,4.01z M180.642,3.219c-0.041-0.644-0.503-0.842-0.875-0.842
			c-0.37,0-0.815,0.265-0.872,0.842H180.642z"/>
		<path fill="#C3C0BF" d="M185.675,3.028c-0.229-0.495-0.627-0.603-0.825-0.603c-0.734,0-0.998,0.569-0.998,1.32
			c0,0.75,0.313,1.32,0.998,1.32c0.396,0,0.711-0.149,0.917-0.645l0.925,0.47c-0.396,0.701-1.115,1.163-1.955,1.163
			c-1.312,0-2.222-0.833-2.222-2.31c0-1.453,0.966-2.311,2.179-2.311c0.834,0,1.551,0.305,1.973,1.072L185.675,3.028z"/>
		<path fill="#C3C0BF" d="M187.416,0.066h1.287v1.896h0.017c0.248-0.338,0.8-0.527,1.204-0.527c0.923,0,1.378,0.536,1.378,1.418
			V5.94h-1.287V3.309c0-0.677-0.362-0.833-0.643-0.833c-0.298,0-0.671,0.189-0.671,1.007v2.458h-1.286L187.416,0.066L187.416,0.066z
			"/>
		<path fill="#C3C0BF" d="M192.456,1.551h1.288v0.388c0.328-0.388,0.873-0.503,1.269-0.503c1.041,0,1.33,0.602,1.33,1.262v3.243
			h-1.287V3.193c0-0.429-0.134-0.718-0.629-0.718c-0.519,0-0.685,0.338-0.685,0.734V5.94h-1.287L192.456,1.551L192.456,1.551z"/>
		<path fill="#C3C0BF" d="M201.854,3.746c0,1.477-0.966,2.31-2.334,2.31c-1.369,0-2.334-0.833-2.334-2.31s0.965-2.311,2.334-2.311
			C200.888,1.435,201.854,2.27,201.854,3.746z M198.472,3.746c0,0.751,0.312,1.32,1.048,1.32c0.734,0,1.047-0.569,1.047-1.37
			c0-0.702-0.312-1.271-1.047-1.271C198.785,2.426,198.472,2.994,198.472,3.746z"/>
		<path fill="#C3C0BF" d="M202.695,5.941V0.066h1.287v5.875H202.695z"/>
		<path fill="#C3C0BF" d="M209.494,3.746c0,1.477-0.967,2.31-2.336,2.31s-2.334-0.833-2.334-2.31s0.965-2.311,2.334-2.311
			C208.527,1.436,209.494,2.27,209.494,3.746z M206.111,3.746c0,0.751,0.312,1.32,1.047,1.32c0.734,0,1.047-0.569,1.047-1.37
			c0-0.702-0.312-1.271-1.047-1.271C206.423,2.426,206.111,2.994,206.111,3.746z"/>
		<path fill="#C3C0BF" d="M214.188,1.551v4.398c0,1.395-1.429,1.444-2.105,1.444c-1.318,0-2.012-0.446-2.02-1.518h1.336
			c0.008,0.479,0.278,0.676,0.741,0.676c0.495,0,0.802-0.099,0.802-0.742V5.306c-0.281,0.272-0.826,0.363-1.213,0.363
			c-1.229,0-1.709-0.99-1.709-2.095c0-1.073,0.562-2.137,1.725-2.137c0.479,0,0.892,0.107,1.256,0.462V1.551H214.188z
			 M212.117,2.376c-0.404,0-0.81,0.231-0.81,1.18c0,0.528,0.114,1.171,0.791,1.171c0.826,0,0.853-0.718,0.853-1.171
			C212.951,2.665,212.512,2.376,212.117,2.376z"/>
		<path fill="#C3C0BF" d="M215.136,6.386c0.147,0.009,0.297,0.017,0.437,0.017c0.389,0,0.596-0.075,0.596-0.322
			c0-0.066-0.01-0.141-0.116-0.471l-1.288-4.06h1.355l0.709,3.351h0.016l0.719-3.351h1.394l-1.543,4.678
			c-0.224,0.668-0.503,1.164-1.263,1.164h-1.016L215.136,6.386L215.136,6.386L215.136,6.386z"/>
	</g>
</g>
</svg>
